<svg width="606" height="303" viewBox="0 0 606 303" fill="none" xmlns="http://www.w3.org/2000/svg">
<g opacity="0.4">
<path opacity="0.8" d="M340.741 12.6196C442.085 12.6196 524.241 94.7754 524.241 196.12C524.241 217.088 520.724 237.234 514.248 256.002L465.108 256.001C473.844 237.889 478.741 217.576 478.741 196.12C478.741 119.904 416.957 58.1196 340.741 58.1196C264.526 58.1196 202.741 119.904 202.741 196.12C202.741 217.576 207.638 237.889 216.375 256.001L167.234 256.002C160.758 237.234 157.241 217.088 157.241 196.12C157.241 94.7754 239.397 12.6196 340.741 12.6196Z" fill="#00A2A2"/>
<path opacity="0.6" d="M421.918 2.3844C460.148 18.4222 492.63 45.4461 515.414 79.5065C517.901 84.0388 520.21 88.6684 522.332 93.3861L457.365 122.311C442.033 98.1353 419.391 79.0532 392.547 68.1735L411.333 26.0881L421.918 2.3844Z" fill="#2CC0BF"/>
<path opacity="0.6" d="M389.006 12.4516C397.514 14.7402 405.723 17.6507 413.536 21.1586L392.547 68.1706C376.551 61.6873 359.063 58.1167 340.741 58.1167C337.735 58.1167 334.751 58.2128 331.792 58.4022L325.56 7.97623C346.205 5.41126 367.685 6.7119 389.006 12.4516Z" fill="#59CECD"/>
<path opacity="0.6" d="M324.789 1.7627L331.793 58.405C321.854 59.0411 312.2 60.7296 302.943 63.36L282.007 10.1205C295.679 5.8074 310.001 2.96004 324.789 1.7627Z" fill="#85DDDC"/>
</g>
<g opacity="0.6">
<g opacity="0.8">
<path d="M148.5 156C176.943 156 200 132.943 200 104.5C200 76.0573 176.943 53 148.5 53C120.057 53 97 76.0573 97 104.5C97 132.943 120.057 156 148.5 156Z" fill="#009392"/>
</g>
<mask id="mask0" mask-type="alpha" maskUnits="userSpaceOnUse" x="97" y="53" width="103" height="103">
<path fill-rule="evenodd" clip-rule="evenodd" d="M148.5 156C176.943 156 200 132.943 200 104.5C200 76.0573 176.943 53 148.5 53C120.057 53 97 76.0573 97 104.5C97 132.943 120.057 156 148.5 156Z" fill="white"/>
</mask>
<g mask="url(#mask0)">
<path opacity="0.4" fill-rule="evenodd" clip-rule="evenodd" d="M198.387 124.954V127.391H152.14V124.954H198.387ZM203.256 121.434V118.997L157.008 118.997V121.434L203.256 121.434ZM211.369 111.956V114.393L165.122 114.393V111.956L211.369 111.956ZM219.483 107.352V104.915L173.236 104.915V107.352L219.483 107.352ZM213.801 97.8746V100.312L165.122 100.312V97.8746L213.801 97.8746ZM187.028 93.2711V90.834L157.008 90.834V93.2711L187.028 93.2711ZM198.387 84.053V81.6159L152.14 81.6159V84.053L198.387 84.053Z" fill="#59CECD"/>
<path opacity="0.6" fill-rule="evenodd" clip-rule="evenodd" d="M148.885 124.954V127.391L135.051 127.391V124.954H148.885ZM153.768 121.434V118.997H139.934V121.434H153.768ZM161.906 111.956V114.393H148.072V111.956H161.906ZM170.044 107.352V104.915H156.21V107.352H170.044ZM161.906 97.8746V100.312H148.072V97.8746H161.906ZM153.768 93.2711V90.834H139.934V93.2711H153.768ZM148.885 84.053V81.6159H135.051V84.053H148.885Z" fill="#59CECD"/>
<path opacity="0.8" fill-rule="evenodd" clip-rule="evenodd" d="M128.337 124.954V127.391H122.844V124.954H128.337ZM128.337 121.434V118.997H122.845V121.434H128.337ZM128.337 111.956V114.393H122.845V111.956H128.337ZM128.337 107.352V104.915H122.845V107.352H128.337ZM128.337 97.8746V100.312H122.845V97.8746H128.337ZM128.337 93.2711V90.834H122.845V93.2711H128.337ZM128.337 84.053V81.6159H122.845V84.053H128.337Z" fill="#59CECD"/>
</g>
</g>
<g opacity="0.8">
<path opacity="0.4" fill-rule="evenodd" clip-rule="evenodd" d="M209.902 42.6316C215.962 42.6316 220.875 37.7187 220.875 31.6584C220.875 25.5981 215.962 20.6852 209.902 20.6852C203.842 20.6852 198.929 25.5981 198.929 31.6584C198.929 37.7187 203.842 42.6316 209.902 42.6316Z" fill="#00A2A2"/>
</g>
<path fill-rule="evenodd" clip-rule="evenodd" d="M54.728 250.142L49.3351 251.718V251.718C47.8177 254.919 44.0912 256.411 40.7836 255.143L40.6637 255.097C39.936 254.808 39.254 254.416 38.6388 253.932C36.3095 252.143 32.4845 251.288 27.4394 251.196C26.7986 251.013 26.363 250.419 26.3806 249.753V249.753C26.3992 249.049 26.918 248.458 27.614 248.349L54.6931 244.093L54.728 250.142Z" fill="#FACDBC"/>
<path fill-rule="evenodd" clip-rule="evenodd" d="M125.303 253.109C111.037 251.203 97.9978 247.854 86.9886 242.119L53.5224 251.268L53.4524 243.879L79.5388 233.955C83.9397 232.281 88.6443 231.554 93.3452 231.822L124.877 236.823L125.303 253.109Z" fill="#008AB6"/>
<path fill-rule="evenodd" clip-rule="evenodd" d="M71.2187 257.491C70.9795 256.764 71.2478 255.966 71.8778 255.53L84.44 248.5L87.3145 240.399L92.707 243.592L91.3815 249.553L91.7958 251.994C92.0587 253.544 91.6363 255.131 90.638 256.345C89.6398 257.558 88.1639 258.279 86.5928 258.32L72.9054 258.679C72.1426 258.699 71.457 258.216 71.2187 257.491Z" fill="#FACDBC"/>
<path d="M92.3229 255.225C92.3836 255.639 92.3582 256.062 92.2481 256.466C91.9581 257.291 91.0373 257.689 90.2099 257.949C86.4325 259.118 82.4287 259.309 78.4801 259.492C75.5169 259.629 72.4668 259.754 69.6682 258.774C69.0919 258.605 68.5619 258.307 68.1187 257.901C67.6684 257.488 67.4693 256.868 67.5948 256.271C67.7936 255.531 68.5547 255.117 69.2418 254.784L72.9852 252.979L80.1986 249.501C81.0978 249.069 82.0348 248.629 83.0318 248.631C84.2402 248.637 85.334 249.294 86.4276 249.809C87.217 250.182 88.0355 250.489 88.8749 250.728C89.6178 250.937 90.6529 250.938 91.3136 251.315C92.5119 251.997 92.23 254.057 92.3229 255.225Z" fill="#B08814"/>
<path d="M48.7973 255.256C48.7107 255.676 48.5384 256.073 48.2914 256.423C47.7244 257.113 46.7006 257.174 45.8145 257.135C41.7767 256.937 37.8632 255.72 34.0056 254.515C31.111 253.61 28.137 252.664 25.7907 250.745C25.2961 250.38 24.8914 249.908 24.6074 249.364C24.3192 248.809 24.3446 248.144 24.6743 247.614C25.1237 246.973 25.9999 246.841 26.7765 246.761L31.004 246.337L39.1503 245.518C40.1652 245.417 41.2193 245.322 42.1767 245.672C43.3353 246.101 44.1565 247.115 45.0271 247.992C45.6554 248.625 46.3343 249.207 47.057 249.73C47.6976 250.191 48.6919 250.553 49.1947 251.147C50.1076 252.221 49.1164 254.102 48.7973 255.256Z" fill="#B08814"/>
<path fill-rule="evenodd" clip-rule="evenodd" d="M142.333 248.095C127.452 267.622 116.322 247.069 105.313 225.235L93.2646 246.046L85.4729 240.818L97.9034 211.453C98.5257 209.983 99.8165 208.901 101.373 208.546C102.929 208.19 104.562 208.604 105.761 209.658L124.689 229.667L128.138 229.329L142.333 248.095Z" fill="#2CA9D2"/>
<path fill-rule="evenodd" clip-rule="evenodd" d="M141.766 193.415C146.809 193.283 150.789 189.088 150.657 184.046C150.525 179.003 146.331 175.023 141.288 175.155C136.246 175.287 132.265 179.482 132.397 184.524C132.529 189.566 136.724 193.547 141.766 193.415Z" fill="#FACDBC"/>
<path fill-rule="evenodd" clip-rule="evenodd" d="M153.552 200.268L143.493 202.753C142.413 198.613 140.9 194.597 138.981 190.772L148.268 187.072C149.541 191.651 151.313 196.076 153.552 200.268V200.268Z" fill="#FACDBC"/>
<path fill-rule="evenodd" clip-rule="evenodd" d="M143.259 250.416L124.69 229.667L131.706 217.282C132.334 211.778 135.054 207.392 139.323 203.837L142.155 198.837L150.942 194.903V194.903C157.487 199.835 159.924 208.536 156.894 216.15L143.259 250.416Z" fill="#E46732"/>
<path fill-rule="evenodd" clip-rule="evenodd" d="M104.817 192.285C113.79 192.285 121.064 185.011 121.064 176.038C121.064 167.065 113.79 159.791 104.817 159.791C95.8437 159.791 88.5696 167.065 88.5696 176.038C88.5696 185.011 95.8437 192.285 104.817 192.285Z" fill="#009392"/>
<path fill-rule="evenodd" clip-rule="evenodd" d="M109.355 171.22L115.06 176.734L109.449 182.25L108.117 180.962L112.416 176.734L108.044 172.508L109.355 171.22ZM101.595 171.219L102.87 172.507L98.7602 176.734L102.946 180.96L101.693 182.249L96.2367 176.735L101.595 171.219Z" fill="#007373"/>
<path d="M109.386 194.925C109.301 194.415 109.261 193.899 109.267 193.382C109.193 191.848 108.682 190.376 108.182 188.923C108.11 188.629 107.955 188.363 107.735 188.155C107.293 187.885 106.719 187.981 106.39 188.381C106.086 188.784 105.921 189.275 105.921 189.78C105.886 190.335 105.887 190.976 105.448 191.313C105.268 191.435 105.061 191.513 104.845 191.539C103.542 191.771 102.199 191.233 101.096 190.49C99.9928 189.746 99.0503 188.782 97.9682 188.007C97.3951 187.603 96.7991 187.233 96.1833 186.898C95.5473 186.538 94.6401 186.24 94.1834 186.808C93.8182 187.261 94.0357 187.93 94.3199 188.447C94.7981 189.338 95.3812 190.169 96.0567 190.921C98.0613 193.167 100.776 194.628 103.255 196.333C106.032 198.245 108.558 200.496 110.776 203.036C111.057 202.78 111.25 202.441 111.327 202.069C111.668 201.031 112.831 198.995 112.064 197.956C111.225 196.814 109.72 196.548 109.386 194.925Z" fill="#F8B79D"/>
<path d="M127.913 207.13C127.289 207.574 126.584 207.891 125.838 208.063C124.37 208.274 123.064 207.256 121.946 206.293C118.846 203.619 115.725 200.931 113.119 197.775C113.002 197.592 112.823 197.457 112.615 197.395C112.438 197.377 112.261 197.416 112.108 197.505C111.328 197.859 110.575 198.269 109.854 198.732C109.129 199.136 108.526 199.728 108.108 200.446C107.709 201.38 107.731 202.441 108.168 203.358C108.607 204.257 109.173 205.088 109.848 205.827C113.189 209.813 116.583 213.755 120.029 217.655C120.239 217.929 120.504 218.157 120.807 218.324C121.679 218.725 122.636 218.054 123.566 217.835C124.497 217.615 125.483 217.87 126.441 217.956C128.17 218.116 129.899 217.739 131.595 217.361L137.018 216.159C141.771 215.106 146.807 213.896 150.196 210.418L145.897 206.586C144.609 205.434 143.356 203.989 141.919 203.02C140.859 202.293 138.801 203.216 137.649 203.49C136.035 203.865 134.441 204.322 132.874 204.86C131.32 205.395 129.225 206.035 127.913 207.13Z" fill="#E46732"/>
<path fill-rule="evenodd" clip-rule="evenodd" d="M148.801 169.655C148.856 167.776 150.338 166.287 152.185 166.256L152.134 166.25L152.134 166.25C152.078 166.243 152.023 166.237 151.966 166.234C150.033 166.146 148.42 167.668 148.364 169.635C148.349 170.167 148.449 170.677 148.642 171.14C148.641 171.14 148.641 171.14 148.641 171.14C145.408 168.554 136.514 172.093 135.995 173.884C131.767 174.555 128.638 177.135 128.794 181.61L128.794 181.61C131.356 182.612 134.224 182.426 137.297 181.444C142.389 185.444 142.907 190.587 140.103 196.561L143.809 196.564L148.162 189.661L148.622 196.568L157.105 196.229L156.761 186.325C156.674 183.032 155.814 179.794 154.254 176.881C153.627 175.736 152.865 174.807 152.028 173.982C152.211 174.008 152.397 174.019 152.587 174.015C154.532 173.978 156.053 172.346 155.984 170.372C155.915 168.397 154.283 166.828 152.338 166.866C150.393 166.903 148.872 168.535 148.941 170.509C148.945 170.627 148.955 170.743 148.97 170.858C148.85 170.479 148.79 170.073 148.801 169.655Z" fill="#394851"/>
<path fill-rule="evenodd" clip-rule="evenodd" d="M141.568 188.574C142.528 188.549 143.278 187.439 143.243 186.095C143.207 184.751 142.401 183.681 141.44 183.707C140.48 183.732 139.731 184.842 139.766 186.186C139.801 187.53 140.608 188.599 141.568 188.574Z" fill="#FACDBC"/>
<path fill-rule="evenodd" clip-rule="evenodd" d="M543.684 32.9691C543.684 40.6743 539.043 47.6207 531.924 50.5693C524.805 53.518 516.611 51.8881 511.163 46.4397C505.715 40.9914 504.085 32.7975 507.033 25.6788C509.982 18.5602 516.929 13.9187 524.634 13.9187C535.15 13.9306 543.672 22.4528 543.684 32.9691V32.9691Z" stroke="#009392" stroke-width="0.5"/>
<path fill-rule="evenodd" clip-rule="evenodd" d="M564.649 166.272C543.292 166.272 525.979 148.959 525.979 127.602C525.979 106.245 543.292 88.9318 564.649 88.9318C586.006 88.9318 603.319 106.245 603.319 127.602C603.319 148.959 586.006 166.272 564.649 166.272Z" stroke="#009392"/>
<path fill-rule="evenodd" clip-rule="evenodd" d="M564.078 136.8C564.078 136.513 563.97 136.28 563.836 136.28H543.854C543.72 136.28 543.611 136.513 543.611 136.8C543.611 137.087 543.72 137.319 543.854 137.319H563.836C563.97 137.319 564.078 137.087 564.078 136.8ZM585.952 140.074C585.952 139.787 585.843 139.554 585.71 139.554H554.281C554.147 139.554 554.039 139.787 554.039 140.074C554.039 140.361 554.147 140.594 554.281 140.594H585.71C585.843 140.594 585.952 140.361 585.952 140.074ZM563.739 142.829C563.873 142.829 563.981 143.062 563.981 143.349C563.981 143.636 563.873 143.869 563.739 143.869H543.757C543.623 143.869 543.514 143.636 543.514 143.349C543.514 143.062 543.623 142.829 543.757 142.829H563.739ZM572.323 142.888C572.457 142.888 572.566 143.121 572.566 143.408C572.566 143.695 572.457 143.928 572.323 143.928H566.6C566.466 143.928 566.358 143.695 566.358 143.408C566.358 143.121 566.466 142.888 566.6 142.888H572.323ZM563.787 146.103C563.874 146.103 563.954 146.202 563.998 146.363C564.041 146.524 564.041 146.723 563.998 146.884C563.954 147.045 563.874 147.144 563.787 147.143H543.805C543.718 147.144 543.638 147.045 543.595 146.884C543.551 146.723 543.551 146.524 543.595 146.363C543.638 146.202 543.718 146.103 543.805 146.103H563.787ZM549.739 149.697C549.695 149.536 549.615 149.437 549.528 149.438H543.805C543.718 149.437 543.638 149.536 543.595 149.697C543.551 149.858 543.551 150.057 543.595 150.218C543.638 150.379 543.718 150.478 543.805 150.477H549.528C549.615 150.478 549.695 150.379 549.739 150.218C549.782 150.057 549.782 149.858 549.739 149.697ZM585.952 149.957C585.952 149.67 585.843 149.438 585.71 149.438H554.281C554.194 149.437 554.114 149.536 554.071 149.697C554.027 149.858 554.027 150.057 554.071 150.218C554.114 150.379 554.194 150.478 554.281 150.477H585.71C585.843 150.477 585.952 150.244 585.952 149.957ZM572.566 146.623C572.566 146.336 572.457 146.103 572.323 146.103H566.6C566.466 146.103 566.358 146.336 566.358 146.623C566.358 146.91 566.466 147.143 566.6 147.143H572.323C572.457 147.143 572.566 146.91 572.566 146.623ZM582.169 143.408C582.169 143.121 582.06 142.888 581.926 142.888H576.203C576.069 142.888 575.961 143.121 575.961 143.408C575.961 143.695 576.069 143.928 576.203 143.928H581.926C582.06 143.928 582.169 143.695 582.169 143.408ZM549.528 139.554C549.662 139.554 549.771 139.787 549.771 140.074C549.771 140.361 549.662 140.594 549.528 140.594H543.805C543.671 140.594 543.563 140.361 543.563 140.074C543.563 139.787 543.671 139.554 543.805 139.554H549.528Z" fill="#009392"/>
<path fill-rule="evenodd" clip-rule="evenodd" d="M577.7 110.93L575.77 112.877L582.099 119.266L575.764 125.655L577.693 127.602L585.952 119.266L577.7 110.93ZM551.98 110.93L543.346 119.266L551.98 127.602L553.997 125.655L547.381 119.266L553.997 112.877L551.98 110.93ZM569.537 119.729V117.413H572.059V119.729H569.537ZM559.092 117.413V119.729H561.613V117.413H559.092ZM564.134 119.729V117.413H566.656V119.729H564.134Z" fill="#009392"/>
<path opacity="0.8" fill-rule="evenodd" clip-rule="evenodd" d="M311.165 136.208C310.225 136.208 309.463 136.878 309.463 137.705L309.463 215.18H320.463L320.463 137.705C320.463 136.878 319.701 136.208 318.761 136.208H311.165ZM351.803 161.264C352.122 160.983 352.555 160.825 353.006 160.825H360.602C361.542 160.825 362.304 161.496 362.304 162.323L362.304 215.18H351.304L351.304 162.323C351.304 161.925 351.484 161.545 351.803 161.264ZM330.384 175.735C330.384 174.908 331.146 174.237 332.086 174.237H339.681C340.621 174.237 341.383 174.908 341.383 175.735L341.384 215.18H330.384L330.384 175.735ZM288.543 167.639C288.543 166.955 289.305 166.399 290.245 166.399H297.84C298.78 166.399 299.542 166.955 299.542 167.639L299.543 215.18H288.543L288.543 167.639Z" fill="#009392"/>
<path d="M395.026 125.321L369.484 104.433L345.266 116.827L321.049 78.7972L293.237 106.303" stroke="#009392" stroke-width="2" stroke-linecap="round"/>
<path fill-rule="evenodd" clip-rule="evenodd" d="M315.878 80.6674C315.878 77.9059 318.117 75.6674 320.878 75.6674C323.64 75.6674 325.878 77.9059 325.878 80.6674C325.878 83.4288 323.64 85.6674 320.878 85.6674C318.117 85.6674 315.878 83.4288 315.878 80.6674ZM369.28 100.303C366.519 100.303 364.28 102.542 364.28 105.303C364.28 108.065 366.519 110.303 369.28 110.303C372.042 110.303 374.28 108.065 374.28 105.303C374.28 102.542 372.042 100.303 369.28 100.303ZM245.929 106.953C245.929 104.191 248.167 101.953 250.929 101.953C253.69 101.953 255.929 104.191 255.929 106.953C255.929 109.714 253.69 111.953 250.929 111.953C248.167 111.953 245.929 109.714 245.929 106.953ZM345.079 112.697C342.318 112.697 340.079 114.935 340.079 117.697C340.079 120.458 342.318 122.697 345.079 122.697C347.841 122.697 350.079 120.458 350.079 117.697C350.079 114.935 347.841 112.697 345.079 112.697ZM395.026 119.297C392.265 119.297 390.026 121.535 390.026 124.297C390.026 127.058 392.265 129.297 395.026 129.297C397.788 129.297 400.026 127.058 400.026 124.297C400.026 121.535 397.788 119.297 395.026 119.297Z" fill="#00B2B1"/>
<path fill-rule="evenodd" clip-rule="evenodd" d="M292.978 109.537C293.455 108.957 293.751 108.25 293.83 107.504C294.094 105.86 293.582 104.187 292.445 102.972C291.285 101.825 289.358 101.433 287.964 102.285C286.881 102.942 286.284 104.153 285.743 105.3C285.496 105.822 285.215 106.335 284.933 106.849C284.299 108.005 283.663 109.166 283.415 110.441C282.869 113.26 281.382 115.727 279.89 118.203C278.692 120.192 277.49 122.186 276.768 124.374C276.582 124.938 276.427 125.515 276.272 126.091C275.946 127.307 275.621 128.521 274.999 129.605C274.566 130.304 274.082 130.969 273.549 131.596C271.451 134.243 269.596 137.074 268.007 140.054C267.249 140.202 266.56 140.757 265.9 141.289C265.758 141.403 265.618 141.516 265.479 141.623C264.474 142.405 263.31 142.957 262.068 143.239C261.569 143.299 261.09 143.474 260.67 143.751C260.34 144.028 260.169 144.428 259.997 144.832C259.864 145.143 259.731 145.456 259.523 145.716C259.176 146.104 258.736 146.398 258.244 146.569C258.214 146.42 258.214 146.266 258.214 146.117C258.184 145.324 258.184 144.531 258.184 143.738C261.011 140.391 261 135.489 258.159 132.154C258.191 130.92 258.354 129.692 258.645 128.492C258.798 127.908 258.773 127.188 258.304 126.812C258.047 126.657 257.782 126.515 257.511 126.386C257.155 126.088 256.864 125.719 256.658 125.303C255.355 123.445 252.896 122.809 250.856 123.802C249.924 124.291 249.217 125.07 248.508 125.851C248.035 126.372 247.561 126.894 247.019 127.333C246.665 127.621 246.284 127.871 245.902 128.122C245.532 128.365 245.163 128.608 244.819 128.884C243.417 130.105 242.421 131.725 241.967 133.527C241.513 135.321 241.249 137.157 241.178 139.006C241.105 139.56 241.127 140.122 241.242 140.668C241.383 141.125 241.595 141.556 241.868 141.947C243.168 144.061 244.994 145.8 247.168 146.995C247.181 147.104 247.181 147.214 247.168 147.323C247.148 147.489 247.116 147.646 247.084 147.807L247.078 147.835C247.052 147.827 247.027 147.818 247.002 147.809C246.944 147.787 246.887 147.767 246.831 147.767C246.531 147.698 246.224 147.655 245.917 147.613C245.288 147.525 244.662 147.438 244.115 147.132C243.391 146.726 242.929 146.017 242.465 145.306C242.033 144.643 241.6 143.978 240.952 143.555C240.838 143.479 240.718 143.414 240.594 143.359C240.501 140.935 240.038 138.539 239.221 136.256C239.166 136.101 239.109 135.945 239.052 135.789C238.706 134.845 238.355 133.887 238.407 132.888C238.458 131.887 238.902 130.96 239.337 130.051C239.371 129.981 239.405 129.91 239.438 129.839C241.008 126.506 242.127 122.967 243.241 119.443L243.275 119.335C243.992 117.098 244.702 114.859 245.407 112.62C246.101 112.106 246.73 111.509 247.279 110.842C248.415 109.516 249.165 107.905 249.449 106.182C249.723 104.444 249.292 102.668 248.251 101.249C247.793 100.571 247.063 100.125 246.251 100.026C245.535 100.04 244.857 100.348 244.375 100.878C243.671 101.688 243.127 102.624 242.772 103.637C242.077 105.282 241.37 107.001 241.434 108.791C241.449 109.169 241.495 109.559 241.541 109.949C241.677 111.09 241.813 112.24 241.178 113.136C238.85 116.388 236.987 120.039 235.151 123.635C234.754 124.412 234.359 125.188 233.96 125.955C233.389 126.986 232.901 128.061 232.502 129.17C231.955 130.966 231.696 132.836 231.734 134.712C231.717 138.23 232.195 141.73 232.672 145.213C232.89 146.791 233.167 148.462 233.917 149.822C233.425 151.505 233.167 153.248 233.15 155.002C233.132 155.407 233.196 155.811 233.337 156.191C233.59 156.634 233.909 157.035 234.284 157.381C235.297 158.527 235.763 160.055 235.563 161.572C235.442 162.986 235.571 164.41 235.942 165.78C236.795 169.561 237.648 173.347 238.334 177.163C238.497 177.872 238.55 178.603 238.492 179.328C238.436 179.717 238.323 180.098 238.21 180.478C238.024 181.106 237.839 181.729 237.916 182.373C238.037 182.854 238.126 183.342 238.185 183.835C238.157 184.208 238.071 184.575 237.929 184.922C237.747 185.456 237.506 186.12 237.235 186.866C236.069 190.076 234.353 194.805 234.373 197.226C234.595 197.166 234.825 197.115 235.056 197.064C234.681 199.195 234.03 201.274 233.377 203.356C232.84 205.068 232.303 206.784 231.918 208.532C231.332 211.353 231.066 214.23 231.125 217.11C231.183 218.402 231.16 219.697 231.057 220.986C230.984 221.633 230.859 222.273 230.734 222.912C230.637 223.406 230.541 223.899 230.468 224.396C230.288 225.93 230.221 227.475 230.268 229.018C230.219 231.441 230.354 233.863 230.673 236.266C231.12 239.051 230.731 241.824 230.341 244.613C230.157 245.922 229.974 247.234 229.876 248.553C229.717 251.443 229.388 254.321 228.891 257.173C228.817 257.551 228.738 257.928 228.659 258.305C228.485 259.13 228.311 259.954 228.2 260.788C227.987 262.402 228.008 264.038 228.03 265.672C228.057 267.69 228.084 269.705 227.667 271.673C227.619 271.904 227.565 272.139 227.511 272.376C227.173 273.85 226.815 275.409 227.616 276.635C227.777 276.884 227.981 277.104 228.184 277.324C228.346 277.499 228.508 277.674 228.648 277.863C229.008 278.276 229.122 278.849 228.946 279.368C228.866 279.54 228.74 279.683 228.614 279.826C228.451 280.011 228.29 280.194 228.23 280.434C228.081 281.086 228.746 281.628 229.36 281.905C229.383 281.916 229.406 281.926 229.429 281.935C229.466 281.949 229.502 281.962 229.539 281.977C229.454 282.431 229.574 282.9 229.867 283.256C230.231 283.602 230.684 283.838 231.176 283.938L239.225 286.381C241.037 286.923 242.99 287.447 244.768 287.021C244.81 287.276 244.92 287.514 245.087 287.712C245.452 288.056 245.905 288.292 246.396 288.394L254.445 290.832C256.5 291.455 258.76 292.073 260.73 291.22C261.296 290.99 261.794 290.617 262.175 290.137C262.806 289.201 262.993 288.035 262.686 286.948C262.581 286.405 262.31 285.908 261.911 285.524C261.361 285.147 260.714 284.937 260.047 284.919C259.479 284.902 258.923 284.756 258.419 284.493C258.268 284.393 258.141 284.26 258.048 284.105C258.508 283.649 258.96 283.171 259.387 282.689C259.041 282.549 258.918 282.063 258.884 281.696C258.542 278.078 259.34 274.513 260.14 270.939C260.539 269.152 260.94 267.363 261.199 265.563C261.586 262.854 261.655 260.108 261.403 257.382C261.375 257.083 261.342 256.784 261.31 256.485C261.232 255.76 261.153 255.034 261.126 254.304C261.022 251.579 261.629 248.909 262.238 246.233C262.829 243.633 263.421 241.027 263.364 238.359C263.336 236.672 263.926 235.001 264.51 233.349C264.797 232.537 265.082 231.73 265.291 230.928C265.85 228.766 265.88 226.507 265.88 224.277L265.986 206.686C265.999 204.312 266.003 201.869 265.223 199.622C264.845 198.38 264.741 197.071 264.916 195.785C265.418 195.567 265.914 195.323 266.409 195.08C268.051 194.273 269.678 193.473 271.46 193.653C272.083 192.012 271.35 186.538 270.766 184.884C268.488 178.358 268.046 171.333 269.486 164.573C269.743 163.386 269.702 162.165 269.661 160.944C269.618 159.666 269.576 158.387 269.874 157.15C269.981 156.581 270.198 156.038 270.514 155.552C270.836 155.063 271.386 154.773 271.972 154.784C271.981 153.284 271.942 151.8 271.844 150.299C272.786 149.531 273.589 148.606 274.219 147.566C275.216 145.944 275.865 144.143 276.514 142.344C276.711 141.798 276.907 141.252 277.114 140.711C278.107 138.103 279.328 135.598 280.551 133.09C281.249 131.659 281.948 130.227 282.605 128.774C283.635 126.494 284.138 124.091 284.642 121.677C285.023 119.856 285.405 118.03 286.016 116.248C286.808 113.965 288.451 112.075 290.603 110.974C290.78 110.885 290.962 110.8 291.144 110.715C291.815 110.402 292.491 110.087 292.978 109.537ZM244.84 280.464C244.272 280.446 243.715 280.301 243.211 280.037C242.922 279.797 242.713 279.474 242.61 279.112C242.785 278.92 242.956 278.724 243.113 278.52C242.576 278.434 241.907 278.042 241.907 277.497C241.947 276.95 242.065 276.412 242.256 275.898C242.508 274.971 242.551 273.999 242.38 273.054C242.313 272.689 242.217 272.339 242.122 271.99C242.041 271.695 241.961 271.402 241.898 271.102C241.77 270.372 241.685 269.636 241.643 268.897C241.412 266.24 240.893 263.615 240.095 261.07C239.553 259.347 239.905 257.601 240.261 255.833C240.415 255.069 240.57 254.3 240.653 253.528C240.689 253.189 240.71 252.847 240.731 252.505C240.786 251.619 240.84 250.731 241.148 249.904C241.276 249.559 241.443 249.237 241.61 248.916C241.777 248.595 241.943 248.275 242.069 247.934C242.653 246.357 242.303 244.596 241.949 242.946C244.259 238.75 245.157 233.815 246.023 229.059C246.102 228.626 246.18 228.194 246.26 227.764L247.858 219.093C248.084 217.81 248.345 216.471 249.137 215.435C249.966 219.263 250.292 223.183 250.105 227.095C250.009 228.222 250.023 229.356 250.148 230.48C250.265 231.225 250.497 231.943 250.729 232.662C250.885 233.143 251.041 233.626 251.163 234.117C251.617 235.92 251.592 237.784 251.568 239.651C251.556 240.569 251.544 241.488 251.589 242.401C251.617 242.917 251.661 243.433 251.706 243.949C251.759 244.549 251.811 245.149 251.836 245.752C252.045 250.693 250.391 255.498 248.758 260.162C247.999 262.305 247.684 264.674 247.376 266.98C247.273 267.756 247.171 268.525 247.053 269.277L247.032 269.41C246.591 272.235 246.15 275.064 245.927 277.914C245.915 278.073 245.903 278.232 245.891 278.391C245.836 279.122 245.78 279.865 245.693 280.6C245.411 280.539 245.127 280.494 244.84 280.464Z" fill="url(#paint0_linear)"/>
<path d="M242.359 278.874C241.659 278.085 240.653 278.328 239.63 278.328C236.88 278.379 234.058 278.66 231.551 279.88C230.869 280.168 230.279 280.639 229.846 281.24C229.412 281.865 229.426 282.697 229.88 283.308C230.245 283.65 230.698 283.885 231.189 283.985V283.985L239.238 286.411C241.039 286.953 242.993 287.495 244.778 287.047C244.828 287.29 244.932 287.524 245.087 287.733C245.452 288.076 245.905 288.31 246.396 288.411V288.411L254.445 290.832C256.5 291.451 258.76 292.073 260.729 291.22C261.296 290.991 261.794 290.62 262.175 290.142C262.805 289.215 262.992 288.056 262.686 286.978C262.583 286.437 262.311 285.942 261.91 285.563C261.361 285.185 260.714 284.975 260.047 284.957C259.479 284.941 258.921 284.798 258.414 284.54C257.86 284.177 257.928 283.721 257.562 283.295C256.867 282.506 255.856 282.753 254.833 282.753C252.39 282.799 249.889 283.023 247.607 283.927C247.648 283.47 247.607 283.005 247.479 282.553C247.374 282.012 247.103 281.517 246.703 281.137C246.153 280.762 245.506 280.551 244.84 280.532C244.272 280.519 243.715 280.376 243.211 280.114C242.657 279.752 242.725 279.3 242.359 278.874Z" fill="#006D90"/>
<path d="M251.836 193.176C247.092 192.699 242.321 192.565 237.558 192.775C237.244 192.772 236.931 192.821 236.633 192.92C235.584 193.346 235.422 194.719 235.324 195.84C234.898 200.394 232.911 204.636 231.913 209.095C231.327 211.898 231.061 214.759 231.12 217.622C231.178 218.901 231.155 220.183 231.052 221.459C230.924 222.597 230.626 223.714 230.464 224.848C230.284 226.372 230.217 227.907 230.263 229.44C230.215 231.844 230.35 234.249 230.668 236.632C231.325 240.695 230.178 244.733 229.871 248.842C229.718 251.717 229.395 254.58 228.903 257.416C228.669 258.614 228.375 259.799 228.213 261.006C227.735 264.591 228.434 268.283 227.68 271.822C227.33 273.476 226.699 275.335 227.629 276.75C227.919 277.177 228.345 277.539 228.66 277.97C229.021 278.379 229.135 278.95 228.959 279.466C228.775 279.854 228.349 280.11 228.243 280.523C228.076 281.176 228.758 281.709 229.372 281.986C233.998 284.075 239.963 282.604 243.083 278.601C242.546 278.515 241.89 278.127 241.877 277.582C241.918 277.039 242.035 276.505 242.226 275.996C242.477 275.076 242.52 274.112 242.35 273.173C242.226 272.517 242.005 271.894 241.868 271.234C241.74 270.509 241.655 269.777 241.612 269.042C241.382 266.401 240.863 263.794 240.065 261.266C239.289 258.814 240.346 256.333 240.623 253.775C240.751 252.564 240.696 251.315 241.118 250.173C241.374 249.499 241.787 248.894 242.039 248.22C242.623 246.647 242.273 244.899 241.919 243.262C244.439 238.713 245.279 233.29 246.23 228.178L247.828 219.566C248.067 218.287 248.327 216.961 249.107 215.929C249.936 219.731 250.262 223.626 250.075 227.513C249.979 228.633 249.993 229.76 250.118 230.877C250.314 232.113 250.83 233.277 251.133 234.488C251.793 237.161 251.405 239.966 251.559 242.716C251.619 243.829 251.759 244.933 251.806 246.046C252.015 250.957 250.361 255.732 248.728 260.366C247.726 263.21 247.504 266.442 247.023 269.417C246.596 272.27 246.123 275.122 245.897 278C245.688 280.643 245.594 283.504 243.949 285.58C245.454 286.556 247.006 287.549 248.766 287.886C250.818 288.207 252.918 287.8 254.701 286.735C256.474 285.675 258.059 284.328 259.391 282.749C259.045 282.63 258.922 282.126 258.888 281.764C258.376 276.367 260.427 271.106 261.203 265.734C261.59 263.043 261.659 260.315 261.407 257.608C261.309 256.589 261.168 255.57 261.13 254.547C260.925 249.213 263.496 244.076 263.402 238.738C263.36 236.236 264.681 233.771 265.329 231.354C265.888 229.222 265.905 226.963 265.918 224.746L266.024 207.266C266.024 204.904 266.024 202.483 265.261 200.253C264.323 197.567 265.398 194.485 265.56 191.645C261.13 193.049 256.467 193.569 251.836 193.176V193.176Z" fill="#008AB6"/>
<path fill-rule="evenodd" clip-rule="evenodd" d="M244.409 102.14C244.892 101.612 245.57 101.304 246.285 101.288C247.096 101.387 247.825 101.831 248.285 102.507C249.326 103.911 249.758 105.675 249.483 107.401C249.2 109.115 248.449 110.718 247.313 112.031C246.765 112.697 246.136 113.291 245.441 113.801L243.309 120.473C242.201 124.011 241.075 127.559 239.472 130.905C239.437 130.979 239.402 131.052 239.367 131.126C238.933 132.026 238.492 132.943 238.441 133.937C238.406 134.968 238.77 135.959 239.127 136.934C239.17 137.051 239.213 137.167 239.255 137.283C240.28 140.12 240.75 143.128 240.641 146.143C238.466 147.848 236.752 149.98 235.047 152.162C233.406 150.726 233.009 148.364 232.706 146.194C232.229 142.732 231.768 139.253 231.768 135.761C231.729 133.893 231.988 132.031 232.536 130.244C232.934 129.142 233.422 128.074 233.994 127.051C234.391 126.292 234.784 125.526 235.179 124.757C237.016 121.179 238.882 117.548 241.212 114.312C241.855 113.422 241.716 112.283 241.578 111.152C241.53 110.761 241.483 110.372 241.468 109.993C241.404 108.22 242.111 106.515 242.806 104.877C243.162 103.872 243.706 102.943 244.409 102.14ZM292.457 104.217C291.298 103.074 289.371 102.682 287.977 103.535C286.894 104.178 286.297 105.381 285.755 106.519C285.503 107.056 285.214 107.58 284.926 108.104L284.926 108.104C284.298 109.243 283.673 110.379 283.428 111.635C282.881 114.432 281.395 116.883 279.903 119.343C278.705 121.319 277.503 123.301 276.781 125.474C276.594 126.034 276.439 126.608 276.284 127.181C275.959 128.388 275.633 129.593 275.012 130.671C274.579 131.366 274.094 132.027 273.562 132.649C271.016 135.835 268.827 139.29 267.035 142.954C266.39 144.283 266.946 145.885 267.457 147.356L267.457 147.356C267.557 147.644 267.655 147.927 267.743 148.202C268.22 149.672 268.454 151.21 268.438 152.755C270.889 152.435 272.918 150.649 274.219 148.517C275.217 146.881 275.866 145.096 276.515 143.311C276.711 142.771 276.908 142.232 277.114 141.696C278.104 139.117 279.321 136.64 280.54 134.158C281.242 132.73 281.944 131.3 282.605 129.848C283.635 127.584 284.137 125.196 284.642 122.798C285.023 120.988 285.405 119.173 286.015 117.403C286.811 115.13 288.455 113.252 290.603 112.164C290.784 112.072 290.97 111.986 291.157 111.899C291.824 111.59 292.494 111.278 292.977 110.735C293.454 110.16 293.75 109.457 293.83 108.714C294.095 107.083 293.588 105.422 292.457 104.217ZM251.486 130.112C246.601 130.112 242.64 134.073 242.64 138.959C242.64 142.178 244.359 144.995 246.929 146.543C247.097 147.171 247.265 147.817 247.202 148.274C246.989 149.873 246.132 151.305 245.296 152.687C244.793 153.539 244.149 154.448 243.164 154.541C245.728 155.886 248.42 156.969 251.201 157.773C252.146 158.09 253.137 158.25 254.134 158.246C254.979 158.183 255.806 157.971 256.577 157.619C259.993 156.132 262.538 153.158 263.479 149.553C262.378 149.583 261.276 149.498 260.192 149.302C259.573 149.254 258.996 148.97 258.581 148.509C258.334 148.076 258.218 147.582 258.248 147.085C258.225 146.291 258.213 145.496 258.215 144.701C259.536 143.156 260.333 141.15 260.333 138.959C260.333 134.073 256.372 130.112 251.486 130.112Z" fill="#F7A17D"/>
<path d="M251.09 153.65C250.891 151.26 249.184 149.265 246.852 148.701C245.94 148.496 244.951 148.521 244.136 148.07C242.738 147.289 242.316 145.388 240.973 144.514C239.63 143.64 237.724 144.126 236.556 145.23C235.388 146.334 234.795 147.908 234.318 149.447C233.605 151.528 233.218 153.706 233.171 155.906C233.153 156.308 233.217 156.71 233.359 157.087C233.611 157.527 233.931 157.925 234.305 158.267C235.317 159.404 235.784 160.924 235.584 162.433C235.463 163.837 235.591 165.251 235.964 166.611C236.816 170.371 237.669 174.127 238.355 177.922C238.516 178.62 238.57 179.339 238.513 180.053C238.381 181.081 237.814 182.053 237.937 183.08C238.058 183.559 238.148 184.044 238.206 184.534C238.178 184.905 238.092 185.269 237.95 185.613C236.982 188.422 234.369 194.86 234.395 197.836C238.935 196.672 245.629 196.412 250.318 196.39C251.608 196.377 252.897 196.434 254.181 196.561C257.263 196.893 260.418 197.793 263.407 196.962C266.182 196.19 268.638 193.977 271.507 194.254C272.13 192.626 271.396 187.19 270.812 185.544C268.535 179.065 268.093 172.082 269.533 165.366C270.058 162.953 269.337 160.391 269.921 157.995C270.028 157.428 270.245 156.887 270.561 156.404C270.884 155.917 271.434 155.629 272.019 155.641C272.072 151.787 271.715 147.938 270.953 144.16C270.672 142.817 270.1 141.231 268.723 141.001C267.504 140.792 266.481 141.824 265.5 142.578C264.495 143.357 263.33 143.904 262.089 144.181C261.59 144.241 261.111 144.416 260.691 144.693C260.107 145.179 260.022 146.053 259.544 146.646C258.692 147.707 256.786 147.618 256.18 148.841C256.048 149.206 255.941 149.579 255.861 149.958C255.574 150.685 255.086 151.315 254.454 151.774C253.504 152.667 252.349 153.312 251.09 153.65Z" fill="#BC8F0D"/>
<path d="M258.674 129.554C258.828 128.97 258.802 128.275 258.333 127.883C258.099 127.699 257.792 127.631 257.54 127.456C257.186 127.158 256.896 126.791 256.688 126.378C255.374 124.539 252.925 123.918 250.894 124.907C249.355 125.713 248.425 127.324 247.057 128.411C246.362 128.974 245.556 129.392 244.857 129.955C243.457 131.164 242.461 132.774 242.005 134.568C241.552 136.348 241.287 138.172 241.216 140.008C241.143 140.559 241.165 141.118 241.28 141.662C241.422 142.118 241.633 142.549 241.907 142.941C243.314 145.072 245.168 147.008 247.492 148.108C249.815 149.208 252.642 149.387 254.936 148.236C255.166 148.143 255.365 147.984 255.507 147.78C255.637 147.468 255.668 147.124 255.596 146.795C255.472 145.492 255.73 144.181 256.338 143.022C256.764 142.169 257.404 141.436 257.745 140.553C258.062 139.565 258.198 138.528 258.146 137.492C258.184 134.811 258.001 132.137 258.674 129.554Z" fill="#D45925"/>
<path d="M386.242 143.515C386.693 143.515 387.126 143.729 387.446 144.112C387.765 144.494 387.944 145.012 387.944 145.552V182.595H376.944V145.552C376.944 145.012 377.123 144.494 377.443 144.112C377.762 143.729 378.195 143.515 378.646 143.515H386.242Z" fill="#007373"/>
<path fill-rule="evenodd" clip-rule="evenodd" d="M390.227 141.963C386.222 140.923 382.08 139.871 377.988 140.499C377.489 140.532 377.013 140.724 376.63 141.047C376.12 141.569 376.18 142.466 376.593 143.067C377.05 143.643 377.673 144.064 378.378 144.274C380.292 144.97 382.372 145.03 384.406 145.064C386.441 145.098 388.393 145.144 390.314 144.667C390.759 144.59 391.173 144.392 391.513 144.096C392.602 142.992 391.154 142.205 390.227 141.963Z" fill="#9C5023"/>
<path fill-rule="evenodd" clip-rule="evenodd" d="M420.254 151.73C418.914 151.784 417.571 151.699 416.249 151.476C415.069 151.233 413.906 150.913 412.769 150.516L408.65 149.181C406.419 148.51 404.233 147.695 402.107 146.741C398.472 145.02 395.159 142.46 391.218 141.666C390.507 141.522 389.607 141.518 389.24 142.142C389.096 142.442 389.033 142.775 389.059 143.107L389.036 146.011C389.018 146.204 389.049 146.398 389.127 146.575C389.233 146.734 389.377 146.864 389.547 146.953C393.287 149.355 397.519 151.011 400.916 153.878C401.944 154.744 402.886 155.716 403.968 156.526C405.385 157.574 407.008 158.31 408.73 158.685C411.139 159.211 413.752 159.033 415.935 160.175C416.933 160.693 417.826 161.484 418.934 161.688C419.883 161.855 420.844 161.56 421.759 161.268C423.272 160.788 424.826 160.262 425.851 159.075C427.16 157.562 427.251 155.376 427.273 153.375C427.273 152.808 427.652 150.474 427.3 150.039C426.797 149.442 426.014 150.327 425.519 150.603C423.956 151.461 422.02 151.73 420.254 151.73Z" fill="#0F959E"/>
<path fill-rule="evenodd" clip-rule="evenodd" d="M387.654 185.182C383.516 185.325 379.246 185.45 375.388 183.945C374.907 183.803 374.485 183.512 374.182 183.113C373.803 182.492 374.053 181.63 374.586 181.135C375.158 180.674 375.858 180.399 376.591 180.348C378.607 180.083 380.649 180.488 382.642 180.893C384.635 181.297 386.549 181.683 388.316 182.564C388.731 182.738 389.092 183.022 389.359 183.385C390.207 184.705 388.611 185.147 387.654 185.182Z" fill="#9C5023"/>
<path d="M434.779 143.149C435.646 146.676 436.376 149.541 436.971 151.744C436.07 154.914 429.81 157.725 425.055 156.01C425.843 153.977 426.611 152.199 427.105 148.538C427.452 145.969 429.978 147.91 434.779 143.149Z" fill="#9C5023"/>
<mask id="mask1" mask-type="alpha" maskUnits="userSpaceOnUse" x="425" y="143" width="12" height="14">
<path fill-rule="evenodd" clip-rule="evenodd" d="M434.779 143.149C435.646 146.676 436.376 149.541 436.971 151.744C436.07 154.914 429.81 157.725 425.055 156.01C425.843 153.977 426.611 152.199 427.105 148.538C427.452 145.969 429.978 147.91 434.779 143.149Z" fill="white"/>
</mask>
<g mask="url(#mask1)">
<path d="M434.393 144.442L433.157 142.513C428.779 146.504 425.852 146.09 425.852 146.09L425.059 150.101C425.942 150.422 425.921 151.923 428.81 150.921C431.193 150.1 433.667 147.396 434.393 144.442Z" fill="#823D0B"/>
</g>
<path d="M417.166 130.954C417.23 133.172 417.824 135.421 419.134 137.285C419.339 137.6 419.602 137.885 419.911 138.128C420.476 138.181 421.243 138.733 421.888 138.836C422.373 138.915 422.899 138.836 423.368 138.94C424.829 139.26 426.336 140.326 427.651 140.986C428.538 141.426 429.445 141.882 430.446 142.032C431.657 142.212 432.825 141.924 433.876 141.394C434.761 140.93 435.557 140.349 436.237 139.671C438.508 137.464 440.089 134.405 439.848 131.276C439.306 124.24 429.671 119.068 422.325 120.383C421.942 120.451 421.574 120.568 421.233 120.732C421.126 120.823 421.019 120.919 420.917 121.014C420.704 121.211 420.498 121.415 420.299 121.624L420.195 121.733C419.459 122.531 418.83 123.402 418.32 124.33C417.141 126.478 417.099 128.557 417.166 130.954Z" fill="#AC8410"/>
<path d="M420.969 121.035C421.172 121.983 422.172 123.368 422.573 124.08C424.466 127.426 427.528 130.042 429.589 133.21C429.735 133.436 429.86 133.672 429.99 133.905C430.656 135.099 431.295 136.306 431.93 137.514C432.308 138.236 432.683 138.958 433.053 139.683C433.199 139.972 433.426 140.247 433.443 140.56C433.469 140.859 433.475 141.159 433.461 141.457C433.448 141.578 433.415 141.696 433.363 141.808C433.345 141.848 433.231 142.111 433.176 142.109C433.384 142.1 433.583 142.043 433.753 141.943C434.876 141.39 435.725 140.635 436.553 139.793C436.927 139.423 437.278 139.035 437.603 138.63C438.417 137.584 438.896 136.367 439.272 135.146C439.663 133.871 439.958 132.619 439.855 131.276C439.316 124.252 429.703 119.091 422.374 120.405C421.991 120.472 421.624 120.589 421.284 120.753C421.177 120.844 421.071 120.939 420.969 121.035Z" fill="#C99C1C"/>
<path d="M435.544 139.073C436.304 143.226 433.872 148.138 429.345 149.054C424.818 149.97 421.314 141.916 420.554 137.763C419.794 133.61 423.117 133.201 426.013 128.72C428.588 131.313 431.588 131.435 433.656 133.602C435.31 135.336 435.185 137.078 435.544 139.073Z" fill="#9C5023"/>
<path d="M408.984 277.358C408.164 277.483 407.324 277.358 406.503 277.457C405.344 277.591 404.27 278.135 403.478 278.992C403.204 279.235 403.046 279.583 403.043 279.949C403.088 280.201 403.211 280.433 403.394 280.611C404.151 281.45 405.251 281.882 406.352 282.124C407.992 282.426 409.659 282.553 411.326 282.502C415.471 282.525 419.617 282.544 423.765 282.559C424.065 281.069 424.021 279.531 423.636 278.062C423.556 277.656 423.378 277.276 423.118 276.954C422.846 276.69 422.525 276.482 422.173 276.341L419.616 275.119C417.585 274.147 415.978 273.425 413.943 274.624C412.294 275.562 410.906 277.063 408.984 277.358Z" fill="#00A2A2"/>
<path d="M435.466 287.706C435.521 288.16 435.481 288.621 435.349 289.06C435.009 289.952 433.991 290.361 433.08 290.622C428.919 291.791 424.54 291.885 420.221 291.972C416.979 292.036 413.643 292.086 410.614 290.936C409.989 290.735 409.419 290.393 408.946 289.937C408.466 289.473 408.266 288.79 408.42 288.141C408.659 287.339 409.502 286.908 410.262 286.564L414.404 284.699L422.384 281.106C423.379 280.66 424.415 280.206 425.504 280.236C426.824 280.278 428 281.027 429.18 281.62C430.032 282.05 430.918 282.409 431.828 282.695C432.634 282.944 433.764 282.974 434.475 283.406C435.765 284.185 435.398 286.428 435.466 287.706Z" fill="#00A2A2"/>
<path d="M410.561 208.625C408.469 214.533 406.367 220.482 405.345 226.666C404.967 228.879 404.755 231.11 404.351 233.315C403.973 235.395 403.428 237.513 403.806 239.593C404.052 240.951 404.676 242.207 405.145 243.5C405.769 245.221 406.125 247.029 406.715 248.761C407.63 251.447 409.094 253.913 410.024 256.59C410.928 259.189 411.329 261.976 412.588 264.419C413.345 265.872 414.377 267.184 414.858 268.739C415.554 271.088 414.911 273.629 413.182 275.365C413.405 276.375 414.581 276.878 415.55 277.256L419.086 278.561C420.432 279.056 421.949 279.552 423.246 278.977C425.16 278.141 425.516 275.614 425.459 273.531C425.27 268.455 424.052 263.478 422.838 258.546C421.703 254.007 420.603 249.469 419.264 244.979C418.708 243.126 418.129 241.28 417.679 239.393C416.057 232.355 416.601 224.99 419.237 218.266C420.75 214.484 419.404 209.824 419.574 205.736L414.498 204.802C413.5 204.62 412.286 204.51 411.654 205.305C411.022 206.099 410.92 207.616 410.561 208.625Z" fill="#AC8410"/>
<path d="M434.596 205.914C434.464 207.733 434.316 209.605 433.492 211.209C432.989 212.2 432.259 213.054 431.688 214.007C430.175 216.576 429.899 219.681 429.838 222.68C429.778 225.774 429.888 228.867 430.001 231.957C430.003 232.912 430.101 233.863 430.292 234.798C430.481 235.581 430.799 236.33 430.981 237.112C431.416 239.004 431.015 241.004 431.276 242.933C431.476 244.401 432.032 245.785 432.475 247.203C433.126 249.38 433.434 251.645 433.386 253.916C433.25 260.066 435.19 265.925 435.236 272.071C435.236 274.189 435.16 276.311 435.338 278.425C435.527 280.724 436.03 282.986 436.279 285.282C436.336 285.811 436.344 286.416 435.935 286.768C435.631 286.971 435.267 287.064 434.903 287.033C433.592 287.115 432.277 286.987 431.007 286.655C429.872 286.31 428.866 285.705 427.766 285.308C425.712 284.552 423.167 284.393 421.99 282.555C421.878 282.399 421.809 282.216 421.79 282.025C421.79 281.503 422.346 281.182 422.611 280.728C422.761 280.432 422.836 280.103 422.83 279.771C422.932 277.351 421.847 275.066 421.124 272.755C420.482 270.5 420.006 268.201 419.702 265.876C418.946 261.076 418.189 256.174 418.98 251.379C419.173 250.199 419.419 248.864 418.696 247.914C418.364 247.555 418 247.227 417.607 246.935C416.729 246.143 416.223 245.019 416.211 243.837C416.211 240.055 414.487 236.273 414.32 232.491C414.222 230.305 414.354 228.115 414.252 225.929C413.98 220.157 412.096 214.605 410.379 209.087C410.09 208.296 409.923 207.466 409.884 206.625C409.841 205.764 410.189 204.931 410.829 204.355C413.711 202.045 417.981 201.269 421.174 203.13C421.809 203.508 422.395 203.943 423.065 204.265C426.537 206.084 431.075 204.17 434.596 205.914Z" fill="#C99C1C"/>
<path fill-rule="evenodd" clip-rule="evenodd" d="M410.308 206.315C410.653 206.663 411.07 206.933 411.529 207.105L414.04 208.24C414.436 208.457 414.862 208.615 415.304 208.709C415.865 208.761 416.431 208.72 416.979 208.588C422.768 207.545 428.707 207.657 434.453 208.917C436.302 206.144 436.465 202.563 435.966 199.272C435.697 197.525 435.262 195.721 435.746 194.019C435.95 193.289 436.321 192.616 436.529 191.886C437.096 189.896 436.412 187.752 436.726 185.706C437.104 183.198 438.931 181.167 439.933 178.845C440.494 177.406 440.904 175.913 441.155 174.39C441.525 172.531 441.903 170.677 442.289 168.826C442.701 166.78 443.114 164.711 443.046 162.627C442.959 159.447 441.794 156.409 440.644 153.44C440.16 152.192 439.596 150.846 438.431 150.18C437.006 149.367 435.209 149.859 433.689 150.472C431.718 151.262 429.77 152.226 427.668 152.627C426.76 152.801 425.515 152.487 424.695 152.729C423.991 152.937 423.511 153.887 423.095 154.465C420.767 157.672 419.081 161.299 418.129 165.146C417.172 169.034 416.957 173.168 415.186 176.757C414.781 177.551 414.332 178.321 413.84 179.064C412.819 180.645 411.714 182.177 411.022 183.921C409.956 186.614 409.963 189.567 410.031 192.483C410.031 192.964 410.058 193.437 410.065 193.913C410.141 197.209 410.068 200.499 409.846 203.784C409.774 204.662 409.736 205.641 410.308 206.315Z" fill="#18A8B6"/>
<path opacity="0.1" d="M410.02 192.476C410.936 192.476 411.847 192.43 412.755 192.377C413.827 192.35 414.892 192.19 415.924 191.901C417.475 191.405 418.802 190.388 420.066 189.371C424.035 186.158 427.719 182.607 431.075 178.758C432.187 177.483 433.28 176.145 433.874 174.56C434.6 172.627 434.525 170.494 434.373 168.433C434.275 167.083 434.139 165.691 433.504 164.492C432.985 163.438 432.007 162.685 430.856 162.453L432.282 162.506C430.913 161.655 429.173 161.772 427.566 161.916C426.461 162.015 425.323 162.124 424.347 162.673C423.137 163.331 422.346 164.564 421.7 165.759C419.54 169.696 418.159 174.106 415.353 177.612C414.984 178.098 414.554 178.535 414.075 178.913C413.999 178.97 413.92 179.023 413.84 179.076C412.819 180.657 411.715 182.188 411.023 183.932C409.945 186.606 409.952 189.56 410.02 192.476Z" fill="black"/>
<path fill-rule="evenodd" clip-rule="evenodd" d="M430.011 161.374C431.362 161.271 432.617 162.24 433.249 163.439C433.881 164.638 434.005 166.026 434.119 167.38C434.27 169.441 434.346 171.574 433.62 173.507C433.026 175.091 431.933 176.43 430.821 177.705C427.468 181.552 423.79 185.103 419.826 188.317C418.563 189.342 417.235 190.352 415.685 190.848C414.652 191.137 413.587 191.297 412.515 191.324C408.461 191.563 404.304 191.457 400.488 190.076C397.462 188.991 394.675 187.122 391.487 186.926C390.704 186.876 389.875 186.926 389.18 186.547C387.901 185.863 387.667 184.131 387.78 182.686C387.72 182.375 387.805 182.053 388.011 181.813C388.218 181.573 388.523 181.44 388.839 181.453C395.216 180.662 401.872 182.281 408.018 180.401C409.414 179.941 410.779 179.394 412.107 178.764C412.711 178.516 413.287 178.204 413.824 177.833C414.303 177.457 414.732 177.019 415.099 176.532C417.905 173.026 419.289 168.616 421.449 164.679C422.111 163.469 422.901 162.251 424.096 161.593C425.072 161.063 426.21 160.954 427.315 160.836C428.922 160.693 430.658 160.576 432.031 161.426" fill="#18A8B6"/>
<path d="M602.34 223.732L604.328 231.933C604.35 232.024 604.346 232.12 604.318 232.21L595.3 260.392C595.226 260.622 595.002 260.769 594.762 260.745C594.521 260.722 594.33 260.533 594.303 260.293L593.055 249.315C593.047 249.242 593.054 249.168 593.077 249.098L601.355 223.694C601.426 223.477 601.633 223.332 601.862 223.341C602.091 223.35 602.286 223.51 602.34 223.732Z" fill="#009392"/>
<path d="M561.533 262.665C561.839 263.582 593.348 262.359 593.654 262.053C593.921 261.67 594.146 261.26 594.327 260.829C594.615 260.217 594.878 259.605 594.878 259.605L593.654 249.7L562.45 248.592C562.45 248.592 561.67 256.987 561.511 260.829C561.471 261.799 561.471 262.481 561.533 262.665Z" fill="#009392"/>
<path opacity="0.1" d="M589.677 251.04L590.289 259.606H576.523V251.04H589.677Z" fill="black"/>
<path opacity="0.1" d="M571.934 253.793L572.016 253.776L571.628 257.464H563.98V253.793H571.934Z" fill="black"/>
<path opacity="0.1" d="M561.533 262.665C561.839 263.582 593.348 262.359 593.654 262.053C593.921 261.67 594.146 261.26 594.327 260.829H561.511C561.471 261.799 561.471 262.481 561.533 262.665Z" fill="black"/>
<path d="M521.095 234.991H528.142L545.508 228.196C545.508 228.196 557.84 223.162 556.834 232.726C555.827 242.29 554.065 255.126 554.065 255.126C554.065 255.126 548.528 252.609 545.508 253.364C542.488 254.119 544.501 238.011 544.501 238.011C544.501 238.011 519.836 249.84 517.571 248.33C515.306 246.82 514.803 236.25 514.803 236.25L521.095 234.991Z" fill="#C54B17"/>
<path d="M533.788 212.598L542.316 224.852L562.199 241.463C562.199 241.463 580.572 245.741 578.055 248.762C575.538 251.782 560.185 245.741 560.185 245.741C560.185 245.741 537.282 229.13 536.527 227.872C535.772 226.614 527.467 214.784 527.467 214.784L533.788 212.598Z" fill="#703213"/>
<path d="M526.157 201.791L535.248 213.526C535.248 213.526 533.9 218.811 531.744 219.315C529.587 219.818 520.423 212.771 520.423 212.771L526.157 201.791Z" fill="#0086A9"/>
<path d="M530.516 197.715C535.942 197.715 540.34 192.64 540.34 186.38C540.34 180.12 535.942 175.045 530.516 175.045C525.091 175.045 520.693 180.12 520.693 186.38C520.693 192.64 525.091 197.715 530.516 197.715Z" fill="#87401C"/>
<path d="M529.333 196.439C529.333 196.439 526.087 202.066 525.438 205.096C524.788 208.126 515.699 199.036 515.699 199.036L514.509 195.898C514.509 195.898 523.057 191.895 522.408 188.648C521.759 185.402 529.333 196.439 529.333 196.439Z" fill="#87401C"/>
<path d="M533.759 217.553L544.078 231.144L568.743 249.517C568.743 249.517 586.613 253.292 582.586 256.06C578.559 258.829 566.981 253.543 566.981 253.543C566.981 253.543 542.065 240.204 536.78 234.667C531.494 229.13 521.679 219.818 521.679 219.818L533.759 217.553Z" fill="#87401C"/>
<path d="M519.917 238.694L522.937 243.476L540.962 237.805C544.917 236.561 549.253 237.019 552.761 239.229C555.907 241.211 557.921 244.357 553.39 249.013C544.33 258.325 538.29 253.292 538.29 253.292C538.29 253.292 507.836 267.638 502.802 260.59C497.769 253.543 497.517 250.02 497.517 250.02C497.517 250.02 516.897 237.939 519.917 238.694Z" fill="#E46732"/>
<path d="M557.669 253.95C557.669 253.95 565.723 259.235 556.159 261.752C546.595 264.269 539.548 260.745 539.548 260.745C539.548 260.745 531.242 260.745 531.242 256.466C531.242 252.188 534.011 251.684 534.011 251.684L542.568 252.943C542.568 252.943 552.887 250.174 557.669 253.95Z" fill="#006D90"/>
<path fill-rule="evenodd" clip-rule="evenodd" d="M526.676 184.352C526.713 184.037 526.779 183.726 526.874 183.424C527.364 182.325 529.277 182.646 529.617 181.483C529.684 181.256 529.67 181.008 529.735 180.78C529.902 180.199 530.541 179.911 531.109 179.939C531.673 180.022 532.225 180.174 532.756 180.392C534.092 180.798 535.11 180.154 536.491 179.996C537.107 179.973 537.611 181.116 539.23 180.373C539.753 180.029 540.562 179.268 540.283 178.04C540.004 176.811 539.481 176.893 539.238 176.183C538.995 175.473 539.084 174.304 538.73 173.379C538.161 171.896 535.32 172.713 534.226 171.617C533.96 171.351 534.114 170.746 532.959 169.97C531.805 169.194 531.281 170.369 530.206 170.483C529.131 170.597 528.915 168.751 527.474 169.028C526.033 169.306 526.288 170.193 525.374 170.326C524.294 170.78 523.308 170.217 522.432 170.981C521.557 171.744 522.357 172.388 521.3 173.235C520.242 174.082 518.519 174.818 518.359 175.275C518.213 175.819 517.971 176.483 517.908 177.045C517.767 178.326 516.437 178.447 516.286 179.727C516.255 180.124 516.573 181.643 516.639 182.035C516.639 182.035 515.982 183.106 516.224 183.663C516.466 184.22 517.345 184.869 517.454 185.103C517.553 185.283 517.702 185.426 517.813 185.597C518.126 186.082 518.097 186.723 518.253 187.288C518.409 187.853 519.937 189.024 520.741 188.528C521.545 188.031 521.27 186.88 521.657 186.499C522.197 185.967 522.478 186.033 523.144 186.042C524.477 186.06 526.249 186.182 526.676 184.352Z" fill="#28353B"/>
<path d="M513.606 196.099C514.116 195.963 514.652 195.964 515.161 196.102C516.777 196.536 520.398 197.684 521.175 199.432C522.182 201.697 525.705 205.22 525.705 205.22C525.705 205.22 530.487 210.002 529.48 213.274C528.474 216.546 524.698 220.321 524.698 220.321C524.698 220.321 525.705 235.926 520.672 239.952C515.638 243.979 513.624 241.211 513.624 244.986C513.624 248.761 498.02 260.59 495 253.292C495 253.292 496.51 239.701 496.007 234.919C495.511 230.206 496.237 200.801 513.606 196.099Z" fill="#0098C9"/>
<path d="M521.681 202.452C521.681 202.452 537.034 213.778 534.265 218.56C534.265 218.56 524.953 223.09 522.94 222.838C520.926 222.586 513.124 213.778 511.111 213.023C509.097 212.268 508.09 198.677 521.681 202.452Z" fill="#0098C9"/>
<defs>
<linearGradient id="paint0_linear" x1="227.143" y1="100.06" x2="293.886" y2="100.06" gradientUnits="userSpaceOnUse">
<stop stop-color="#808080" stop-opacity="0.25"/>
<stop offset="0.54" stop-color="#808080" stop-opacity="0.12"/>
<stop offset="1" stop-color="#808080" stop-opacity="0.1"/>
</linearGradient>
</defs>
</svg>
